# Blender 3.6.4
# www.blender.org
mtllib andesitadoble.mtl
o Cube.001
v 1.000000 2.000000 -2.000000
v 1.000000 0.000000 -2.000000
v 1.000000 2.000000 0.000000
v 1.000000 0.000000 0.000000
v -1.000000 2.000000 -2.000000
v -1.000000 0.000000 -2.000000
v -1.000000 2.000000 0.000000
v -1.000000 0.000000 0.000000
v 1.000000 2.000000 0.000000
v 1.000000 0.000000 0.000000
v 1.000000 2.000000 2.000000
v 1.000000 0.000000 2.000000
v -1.000000 2.000000 0.000000
v -1.000000 0.000000 0.000000
v -1.000000 2.000000 2.000000
v -1.000000 0.000000 2.000000
vn -0.0000 1.0000 -0.0000
vn -0.0000 -0.0000 1.0000
vn -1.0000 -0.0000 -0.0000
vn -0.0000 -1.0000 -0.0000
vn 1.0000 -0.0000 -0.0000
vn -0.0000 -0.0000 -1.0000
vt 1.000000 1.000000
vt 0.000000 1.000000
vt 0.000000 0.000000
vt 1.000000 0.000000
s 0
usemtl top
f 1/1/1 5/2/1 7/3/1 3/4/1
f 9/1/1 13/2/1 15/3/1 11/4/1
usemtl sides
f 4/4/2 3/1/2 7/2/2 8/3/2
f 8/3/3 7/2/3 5/1/3 6/4/3
f 2/4/5 1/1/5 3/2/5 4/3/5
f 6/3/6 5/2/6 1/1/6 2/4/6
f 12/4/2 11/1/2 15/2/2 16/3/2
f 16/3/3 15/2/3 13/1/3 14/4/3
f 10/4/5 9/1/5 11/2/5 12/3/5
f 14/3/6 13/2/6 9/1/6 10/4/6
usemtl down
f 6/2/4 2/1/4 4/4/4 8/3/4
f 14/2/4 10/1/4 12/4/4 16/3/4
