# This file uses centimeters as units for non-parametric coordinates.

mtllib puertaPrincipal2.mtl
g default
v -0.171433 -0.000000 0.025093
v 0.000067 -0.000000 0.025093
v -0.171433 0.426000 0.025093
v 0.000067 0.426000 0.025093
v -0.171433 0.426000 -0.024907
v 0.000067 0.426000 -0.024907
v -0.171433 -0.000000 -0.024907
v 0.000067 -0.000000 -0.024907
vt 1.001214 1.000030
vt 0.001214 1.000819
vt 1.000425 0.000031
vt 0.000426 0.000819
vt 0.857401 0.250000
vt 0.982401 0.250000
vt 0.857401 0.500000
vt 0.982401 0.500000
vt 1.000000 0.000000
vt 0.000000 -0.000000
vt 1.000000 1.000000
vt 0.000000 1.000000
vt 0.500000 0.750000
vt 0.625000 0.750000
vt 0.500000 1.000000
vt 0.625000 1.000000
vt 0.840193 0.004106
vt 0.996429 0.004106
vt 0.840193 0.245894
vt 0.996429 0.245894
vt 0.759739 0.180849
vt 0.759739 0.323957
vt 0.759739 0.037741
vt 0.759739 0.467065
vn 0.000000 0.000000 1.000000
vn 0.000000 0.000000 1.000000
vn 0.000000 0.000000 1.000000
vn 0.000000 0.000000 1.000000
vn 0.000000 0.000000 1.000000
vn 0.000000 0.000000 1.000000
vn 0.000000 1.000000 0.000000
vn 0.000000 1.000000 0.000000
vn 0.000000 1.000000 0.000000
vn 0.000000 1.000000 0.000000
vn 0.000000 1.000000 0.000000
vn 0.000000 1.000000 0.000000
vn 0.000000 0.000000 -1.000000
vn 0.000000 0.000000 -1.000000
vn 0.000000 0.000000 -1.000000
vn 0.000000 0.000000 -1.000000
vn 0.000000 0.000000 -1.000000
vn 0.000000 0.000000 -1.000000
vn 0.000000 -1.000000 0.000000
vn 0.000000 -1.000000 0.000000
vn 0.000000 -1.000000 0.000000
vn 0.000000 -1.000000 0.000000
vn 0.000000 -1.000000 0.000000
vn 0.000000 -1.000000 0.000000
vn 1.000000 0.000000 0.000000
vn 1.000000 0.000000 0.000000
vn 1.000000 0.000000 0.000000
vn 1.000000 0.000000 0.000000
vn 1.000000 0.000000 0.000000
vn 1.000000 0.000000 0.000000
vn -1.000000 0.000000 0.000000
vn -1.000000 0.000000 0.000000
vn -1.000000 0.000000 0.000000
vn -1.000000 0.000000 0.000000
vn -1.000000 0.000000 0.000000
vn -1.000000 0.000000 0.000000
s off
g puertaPrincipal2:pCube64
usemtl puertaPrincipal2:lambert27SG
f 1/1/1 2/2/2 3/3/3
f 3/3/4 2/2/5 4/4/6
f 3/5/7 4/6/8 5/7/9
f 5/7/10 4/6/11 6/8/12
f 5/9/13 6/10/14 7/11/15
f 7/11/16 6/10/17 8/12/18
f 7/13/19 8/14/20 1/15/21
f 1/15/22 8/14/23 2/16/24
f 2/17/25 8/18/26 4/19/27
f 4/19/28 8/18/29 6/20/30
f 3/21/31 5/22/32 1/23/33
f 1/23/34 5/22/35 7/24/36
