# This file uses centimeters as units for non-parametric coordinates.

mtllib puertaPrincipal1.mtl
g default
v -0.000500 -0.000000 0.025000
v 0.171000 -0.000000 0.025000
v -0.000500 0.426000 0.025000
v 0.171000 0.426000 0.025000
v -0.000500 0.426000 -0.025000
v 0.171000 0.426000 -0.025000
v -0.000500 -0.000000 -0.025000
v 0.171000 -0.000000 -0.025000
vt 0.000000 0.000000
vt 1.000000 0.000000
vt 0.000000 1.000000
vt 1.000000 1.000000
vt 0.375000 0.250000
vt 0.500000 0.250000
vt 0.375000 0.500000
vt 0.500000 0.500000
vt -0.002054 1.000000
vt 0.997946 1.000000
vt -0.002054 0.000000
vt 0.997946 0.000000
vt 0.375000 0.750000
vt 0.500000 0.750000
vt 0.375000 1.000000
vt 0.500000 1.000000
vt 0.125000 0.000000
vt 0.375000 0.000000
vt 0.125000 0.250000
vt 0.375000 0.250000
vt 0.500000 0.250000
vt 0.500000 1.000000
vt 0.500000 0.500000
vt 0.500000 0.750000
vn 0.000000 0.000000 1.000000
vn 0.000000 0.000000 1.000000
vn 0.000000 0.000000 1.000000
vn 0.000000 0.000000 1.000000
vn 0.000000 0.000000 1.000000
vn 0.000000 0.000000 1.000000
vn 0.000000 1.000000 0.000000
vn 0.000000 1.000000 0.000000
vn 0.000000 1.000000 0.000000
vn 0.000000 1.000000 0.000000
vn 0.000000 1.000000 0.000000
vn 0.000000 1.000000 0.000000
vn 0.000000 0.000000 -1.000000
vn 0.000000 0.000000 -1.000000
vn 0.000000 0.000000 -1.000000
vn 0.000000 0.000000 -1.000000
vn 0.000000 0.000000 -1.000000
vn 0.000000 0.000000 -1.000000
vn 0.000000 -1.000000 0.000000
vn 0.000000 -1.000000 0.000000
vn 0.000000 -1.000000 0.000000
vn 0.000000 -1.000000 0.000000
vn 0.000000 -1.000000 0.000000
vn 0.000000 -1.000000 0.000000
vn -1.000000 0.000000 0.000000
vn -1.000000 0.000000 0.000000
vn -1.000000 0.000000 0.000000
vn -1.000000 0.000000 0.000000
vn -1.000000 0.000000 0.000000
vn -1.000000 0.000000 0.000000
vn 1.000000 0.000000 0.000000
vn 1.000000 0.000000 0.000000
vn 1.000000 0.000000 0.000000
vn 1.000000 0.000000 0.000000
vn 1.000000 0.000000 0.000000
vn 1.000000 0.000000 0.000000
s off
g puertaPrincipal1:pCube63
usemtl puertaPrincipal1:lambert27SG
f 1/1/1 2/2/2 3/3/3
f 3/3/4 2/2/5 4/4/6
f 3/5/7 4/6/8 5/7/9
f 5/7/10 4/6/11 6/8/12
f 5/9/13 6/10/14 7/11/15
f 7/11/16 6/10/17 8/12/18
f 7/13/19 8/14/20 1/15/21
f 1/15/22 8/14/23 2/16/24
f 7/17/25 1/18/26 5/19/27
f 5/19/28 1/18/29 3/20/30
f 4/21/31 2/22/32 6/23/33
f 6/23/34 2/22/35 8/24/36
