# This file uses centimeters as units for non-parametric coordinates.

mtllib ventanaCuarto1.mtl
g default
v 0.000272 0.000283 -0.022366
v -0.181255 0.363337 -0.022366
v -0.181255 0.363337 0.022634
v 0.000272 0.000283 0.022634
v -0.181255 0.000283 -0.022366
v -0.181255 0.000283 0.022634
vt 0.392579 0.005318
vt 0.545064 0.005318
vt 0.392579 0.157803
vt 0.621306 0.157803
vt 0.542815 0.861759
vt 0.605607 0.799891
vt 0.666553 0.987343
vt 0.729344 0.925474
vt 0.009179 0.382627
vt 0.097691 0.294362
vt 0.274219 0.471386
vt 0.742180 0.598151
vt 0.919900 0.773980
vt 0.831985 0.862840
vt 0.673424 0.601927
vt 0.631419 0.713217
vt 0.860570 0.820607
vt 0.792942 0.874373
vn 0.894426 0.447215 0.000000
vn 0.894426 0.447215 0.000000
vn 0.894426 0.447215 0.000000
vn 0.894428 0.447211 0.000000
vn 0.894428 0.447211 0.000000
vn 0.894428 0.447211 0.000000
vn 0.000000 -1.000000 0.000000
vn 0.000000 -1.000000 0.000000
vn 0.000000 -1.000000 0.000000
vn 0.000000 -1.000000 0.000000
vn 0.000000 -1.000000 0.000000
vn 0.000000 -1.000000 0.000000
vn 0.000000 0.000000 -1.000000
vn 0.000000 0.000000 -1.000000
vn 0.000000 0.000000 -1.000000
vn -0.000000 0.000000 1.000000
vn -0.000000 0.000000 1.000000
vn -0.000000 0.000000 1.000000
vn -1.000000 0.000000 -0.000000
vn -1.000000 0.000000 -0.000000
vn -1.000000 0.000000 -0.000000
vn -1.000000 0.000000 -0.000000
vn -1.000000 0.000000 -0.000000
vn -1.000000 0.000000 -0.000000
s off
g ventanaCuarto1:polySurface30base7
usemtl ventanaCuarto1:phong3SG
f 4/1/1 1/2/2 3/3/3
f 3/3/4 1/2/5 2/4/6
f 4/5/7 6/6/8 1/7/9
f 1/7/10 6/6/11 5/8/12
f 1/9/13 5/10/14 2/11/15
f 3/12/16 6/13/17 4/14/18
f 3/15/19 2/16/20 6/17/21
f 6/17/22 2/16/23 5/18/24
